<svg id="Layer_1" enable-background="new 0 0 512 512" height="512" viewBox="0 0 512 512" width="512" xmlns="http://www.w3.org/2000/svg"><path d="m256 0c-141.159 0-256 114.841-256 256s114.841 256 256 256 256-114.841 256-256-114.841-256-256-256zm0 480c-123.514 0-224-100.486-224-224s100.486-224 224-224 224 100.486 224 224-100.486 224-224 224zm97.799-337.801h-195.6c-8.836 0-16 7.164-16 16v195.601c0 8.836 7.164 16 16 16h195.601c8.836 0 16-7.164 16-16v-195.601c-.001-8.836-7.164-16-16.001-16zm-16 195.601h-163.6v-163.601h163.601v163.601z"/></svg>